HIERARCHY
ROOT Hips
{
	OFFSET 0.00000 0.00000 0.00000
	CHANNELS 6 Xposition Yposition Zposition Zrotation Yrotation Xrotation 
	JOINT LHipJoint
	{
		OFFSET 0 0 0
		CHANNELS 3 Zrotation Yrotation Xrotation
		JOINT LeftUpLeg
		{
			OFFSET 1.52977 -1.71332 0.88991
			CHANNELS 3 Zrotation Yrotation Xrotation
			JOINT LeftLeg
			{
				OFFSET 2.23949 -6.15296 0.00000
				CHANNELS 3 Zrotation Yrotation Xrotation
				JOINT LeftFoot
				{
					OFFSET 2.68396 -7.37412 0.00000
					CHANNELS 3 Zrotation Yrotation Xrotation
					JOINT LeftToeBase
					{
						OFFSET 0.20538 -0.56428 2.52710
						CHANNELS 3 Zrotation Yrotation Xrotation
						End Site
						{
							OFFSET 0.00000 -0.00000 1.29919
						}
					}
				}
			}
		}
	}
	JOINT RHipJoint
	{
		OFFSET 0 0 0
		CHANNELS 3 Zrotation Yrotation Xrotation
		JOINT RightUpLeg
		{
			OFFSET -1.45689 -1.71333 0.88991
			CHANNELS 3 Zrotation Yrotation Xrotation
			JOINT RightLeg
			{
				OFFSET -2.36700 -6.50329 0.00000
				CHANNELS 3 Zrotation Yrotation Xrotation
				JOINT RightFoot
				{
					OFFSET -2.69814 -7.41308 0.00000
					CHANNELS 3 Zrotation Yrotation Xrotation
					JOINT RightToeBase
					{
						OFFSET -0.18734 -0.51471 2.37479
						CHANNELS 3 Zrotation Yrotation Xrotation
						End Site
						{
							OFFSET -0.00000 -0.00000 1.22113
						}
					}
				}
			}
		}
	}
	JOINT LowerBack
	{
		OFFSET 0 0 0
		CHANNELS 3 Zrotation Yrotation Xrotation
		JOINT Spine
		{
			OFFSET 0.04294 2.14638 -0.31163
			CHANNELS 3 Zrotation Yrotation Xrotation
			JOINT Spine1
			{
				OFFSET -0.00400 2.17216 0.01486
				CHANNELS 3 Zrotation Yrotation Xrotation
				JOINT Neck
				{
					OFFSET 0 0 0
					CHANNELS 3 Zrotation Yrotation Xrotation
					JOINT Neck1
					{
						OFFSET 0.03869 1.76598 0.14916
						CHANNELS 3 Zrotation Yrotation Xrotation
						JOINT Head
						{
							OFFSET -0.00760 1.75513 -0.18948
							CHANNELS 3 Zrotation Yrotation Xrotation
							End Site
							{
								OFFSET -0.00601 1.82444 -0.08310
							}
						}
					}
				}
				JOINT LeftShoulder
				{
					OFFSET 0 0 0
					CHANNELS 3 Zrotation Yrotation Xrotation
					JOINT LeftArm
					{
						OFFSET 3.73696 0.92058 0.01733
						CHANNELS 3 Zrotation Yrotation Xrotation
						JOINT LeftForeArm
						{
							OFFSET 5.22771 -0.00000 0.00000
							CHANNELS 3 Zrotation Yrotation Xrotation
							JOINT LeftHand
							{
								OFFSET 3.45251 -0.00000 0.00000
								CHANNELS 3 Zrotation Yrotation Xrotation
								JOINT LeftFingerBase
								{
									OFFSET 0 0 0
									CHANNELS 3 Zrotation Yrotation Xrotation
									JOINT LeftHandIndex1
									{
										OFFSET 0.55212 -0.00000 0.00000
										CHANNELS 3 Zrotation Yrotation Xrotation
										End Site
										{
											OFFSET 0.44513 -0.00000 0.00000
										}
									}
								}
								JOINT LThumb
								{
									OFFSET 0 0 0
									CHANNELS 3 Zrotation Yrotation Xrotation
									End Site
									{
										OFFSET 0.45193 -0.00000 0.45193
									}
								}
							}
						}
					}
				}
				JOINT RightShoulder
				{
					OFFSET 0 0 0
					CHANNELS 3 Zrotation Yrotation Xrotation
					JOINT RightArm
					{
						OFFSET -3.63819 0.83094 -0.13694
						CHANNELS 3 Zrotation Yrotation Xrotation
						JOINT RightForeArm
						{
							OFFSET -5.23980 -0.00000 -0.00000
							CHANNELS 3 Zrotation Yrotation Xrotation
							JOINT RightHand
							{
								OFFSET -3.48042 -0.00000 -0.00000
								CHANNELS 3 Zrotation Yrotation Xrotation
								JOINT RightFingerBase
								{
									OFFSET 0 0 0
									CHANNELS 3 Zrotation Yrotation Xrotation
									JOINT RightHandIndex1
									{
										OFFSET -0.61871 -0.00000 0.00000
										CHANNELS 3 Zrotation Yrotation Xrotation
										End Site
										{
											OFFSET -0.49882 -0.00000 0.00000
										}
									}
								}
								JOINT RThumb
								{
									OFFSET 0 0 0
									CHANNELS 3 Zrotation Yrotation Xrotation
									End Site
									{
										OFFSET -0.50644 -0.00000 0.50644
									}
								}
							}
						}
					}
				}
			}
		}
	}
}
MOTION
Frames: 5
Frame Time: .0083333
-4.3087 17.1494 14.9207 -177.8900 58.2304 -174.6360 0.0000 0.0000 0.0000 -19.2608 1.3124 -4.6804 0.6731 5.2464 14.6128 0.5291 -2.5850 -13.0970 0.0656 -1.6529 -4.5474 0.0000 0.0000 0.0000 25.0741 14.4419 -1.0315 -2.4222 -9.6951 27.9947 -1.8886 -6.2541 -28.8253 -0.0338 -1.1860 3.2606 2.0598 -0.8726 4.2599 -0.3096 -1.0610 0.6816 -1.4127 -0.5367 -1.7310 3.5023 1.2740 -0.7574 -1.0467 1.6987 4.2711 -0.8885 0.8982 1.4934 0.0000 0.0000 0.0000 -90.1197 -1.9490 11.2896 4.9386 -8.4809 -0.3664 -0.0000 0.0000 -1.2610 20.7565 10.6918 4.0220 -7.1250 0.0000 -0.0000 -5.6233 41.3296 0.5109 0.0000 0.0000 0.0000 94.2354 -2.8289 13.2991 -8.7808 14.8104 -1.1434 0.0000 0.0000 18.3470 -21.6117 -6.3226 2.4981 7.1250 -0.0000 -0.0000 4.3378 -36.7462 0.8827
-4.3045 17.1488 14.9157 -177.8840 58.2059 -174.6100 0.0000 0.0000 0.0000 -19.2606 1.3299 -4.6923 0.6733 5.2469 14.6141 0.5303 -2.6376 -13.1053 0.0646 -1.6397 -4.5111 0.0000 0.0000 0.0000 25.0781 14.4449 -1.0170 -2.4196 -9.6902 27.9793 -1.8923 -6.2692 -28.8586 -0.0336 -1.1836 3.2541 2.0564 -0.8758 4.2516 -0.3077 -1.0655 0.6799 -1.4087 -0.5390 -1.7282 3.5031 1.2716 -0.7601 -1.0420 1.6951 4.2729 -0.8872 0.8966 1.4943 -0.0000 -0.0000 0.0000 -90.1200 -1.9451 11.3600 4.9385 -8.4806 -0.3664 -0.0000 0.0000 -1.3224 20.7664 10.7048 4.0290 -7.1250 0.0000 -0.0000 -5.6166 41.3443 0.5082 -0.0000 -0.0000 0.0000 94.2234 -2.8173 13.2832 -8.7792 14.8078 -1.1430 0.0000 0.0000 18.3524 -21.6135 -6.3205 2.4975 7.1250 -0.0000 -0.0000 4.3361 -36.7440 0.8826
-4.3004 17.1482 14.9108 -177.8770 58.1839 -174.5810 0.0000 0.0000 0.0000 -19.2598 1.3476 -4.7043 0.6733 5.2471 14.6146 0.5316 -2.6895 -13.1142 0.0636 -1.6267 -4.4751 0.0000 0.0000 0.0000 25.0823 14.4486 -1.0032 -2.4170 -9.6853 27.9636 -1.8961 -6.2830 -28.8913 -0.0335 -1.1811 3.2474 2.0526 -0.8788 4.2435 -0.3058 -1.0699 0.6779 -1.4044 -0.5412 -1.7258 3.5034 1.2699 -0.7630 -1.0369 1.6925 4.2750 -0.8857 0.8954 1.4954 -0.0000 0.0000 0.0000 -90.1200 -1.9411 11.4282 4.9381 -8.4799 -0.3663 -0.0000 0.0000 -1.3828 20.7746 10.7152 4.0346 -7.1250 0.0000 -0.0000 -5.6110 41.3561 0.5061 -0.0000 0.0000 0.0000 94.2103 -2.8059 13.2702 -8.7781 14.8061 -1.1428 0.0000 0.0000 18.3558 -21.6157 -6.3181 2.4969 7.1250 -0.0000 -0.0000 4.3340 -36.7415 0.8824
-4.2964 17.1476 14.9060 -177.8700 58.1645 -174.5530 0.0000 0.0000 0.0000 -19.2591 1.3649 -4.7162 0.6733 5.2469 14.6142 0.5330 -2.7404 -13.1240 0.0625 -1.6132 -4.4378 0.0000 0.0000 0.0000 25.0856 14.4529 -0.9906 -2.4143 -9.6804 27.9477 -1.9000 -6.2955 -28.9235 -0.0333 -1.1782 3.2391 2.0485 -0.8814 4.2358 -0.3043 -1.0738 0.6756 -1.4004 -0.5431 -1.7239 3.5041 1.2685 -0.7659 -1.0320 1.6904 4.2765 -0.8843 0.8944 1.4962 -0.0000 -0.0000 0.0000 -90.1190 -1.9368 11.4950 4.9381 -8.4800 -0.3663 -0.0000 0.0000 -1.4435 20.7826 10.7249 4.0398 -7.1250 0.0000 -0.0000 -5.6054 41.3671 0.5041 -0.0000 -0.0000 0.0000 94.1964 -2.7947 13.2579 -8.7774 14.8049 -1.1426 0.0000 0.0000 18.3598 -21.6174 -6.3153 2.4960 7.1250 -0.0000 -0.0000 4.3323 -36.7387 0.8824
-4.2923 17.1469 14.9012 -177.8630 58.1473 -174.5230 0.0000 0.0000 0.0000 -19.2581 1.3835 -4.7282 0.6731 5.2464 14.6128 0.5343 -2.7921 -13.1341 0.0615 -1.5999 -4.4012 0.0000 0.0000 0.0000 25.0889 14.4569 -0.9787 -2.4116 -9.6754 27.9317 -1.9036 -6.3079 -28.9546 -0.0330 -1.1733 3.2259 2.0445 -0.8838 4.2284 -0.3029 -1.0773 0.6732 -1.3965 -0.5449 -1.7222 3.5046 1.2675 -0.7689 -1.0272 1.6888 4.2772 -0.8828 0.8937 1.4969 -0.0000 0.0000 0.0000 -90.1175 -1.9334 11.5602 4.9376 -8.4792 -0.3662 -0.0000 0.0000 -1.5037 20.7909 10.7336 4.0449 -7.1250 0.0000 -0.0000 -5.5994 41.3771 0.5021 -0.0000 0.0000 0.0000 94.1820 -2.7834 13.2465 -8.7770 14.8043 -1.1425 0.0000 0.0000 18.3630 -21.6176 -6.3128 2.4950 7.1250 -0.0000 -0.0000 4.3319 -36.7360 0.8826
